<?xml version="1.0" encoding="iso-8859-1"?>
<!-- Generator: Adobe Illustrator 19.0.0, SVG Export Plug-In . SVG Version: 6.00 Build 0)  -->
<svg version="1.1" id="Layer_1" xmlns="http://www.w3.org/2000/svg" xmlns:xlink="http://www.w3.org/1999/xlink" x="0px" y="0px"
	 viewBox="0 0 512.001 512.001" style="enable-background:new 0 0 512.001 512.001;" xml:space="preserve">
<g>
	<g>
		<path d="M507.421,269.747c-18.669-15.299-57.505-44.79-95.768-59.517c30.355-36.014,40.624-108.639,43.732-139.96
			c0.371-3.739-0.95-7.45-3.606-10.108c-2.656-2.658-6.364-3.985-10.105-3.615c-31.304,3.106-103.908,13.368-139.939,43.705
			c-14.74-38.232-44.194-77.018-59.479-95.67c-2.381-2.907-5.948-4.585-9.704-4.583c-3.756,0.002-7.314,1.684-9.693,4.589
			c-16.108,19.658-47.94,61.658-61.714,101.811c-25.495-18.924-53.699-33.737-69.949-41.623c-3.378-1.639-7.322-1.666-10.73-0.09
			c-3.409,1.576-5.934,4.595-6.878,8.229c-8.288,31.93-24.877,109.152-4.8,152.639c1.767,3.83,3.743,7.602,5.884,11.308
			c-27.619,11.502-55.035,31.841-70.002,43.906c-2.953,2.381-4.669,5.971-4.667,9.764c0.001,3.793,1.721,7.381,4.676,9.761
			c21.74,17.524,69.732,52.498,106.47,52.498c8.616,0,17.411-1.087,26.062-2.998l-65.89,65.89c-6.884,6.884-6.884,18.044,0,24.927
			s18.043,6.884,24.927,0l65.998-65.998c-1.935,8.709-3.035,17.566-3.035,26.241c0,36.738,34.974,84.73,52.498,106.471
			c2.381,2.953,5.968,4.673,9.761,4.676c3.793,0.001,7.383-1.714,9.764-4.667c12.065-14.966,32.404-42.382,43.906-70.002
			c3.706,2.142,7.479,4.116,11.308,5.885c43.487,20.076,120.71,3.488,152.638-4.8c3.637-0.945,6.656-3.47,8.231-6.878
			c1.576-3.409,1.549-7.351-0.091-10.731c-7.885-16.25-22.699-44.454-41.623-69.948c40.153-13.774,82.153-45.606,101.811-61.714
			c2.905-2.38,4.588-5.938,4.589-9.693C512.002,275.696,510.326,272.127,507.421,269.747z"/>
	</g>
</g>
<g>
</g>
<g>
</g>
<g>
</g>
<g>
</g>
<g>
</g>
<g>
</g>
<g>
</g>
<g>
</g>
<g>
</g>
<g>
</g>
<g>
</g>
<g>
</g>
<g>
</g>
<g>
</g>
<g>
</g>
</svg>
